# xmcd CD database file
#
# Track frame offsets:
#	150
#	23932
#	52587
#	76278
#	99258
#	115691
#	142338
#	173916
#	198881
#	217572
#	251080
#	284197
#
# Disc length: 4492 seconds
#
# Revision: 0
# Processed by: cddbd v1.5.1PL2 Copyright (c) Steve Scherf et al.
# Submitted via: CDex 1.51
#
DISCID=a1118a0c
DTITLE=Jora*kova - BARKarole
DYEAR=2004
DGENRE=New Age
TTITLE0=Prelude
TTITLE1=Ubud Aubade
TTITLE2=Duettino
TTITLE3=Bach's Dog (J.S.Bach)
TTITLE4=Daydreaming Dog
TTITLE5=By The Brook
TTITLE6=Concerto
TTITLE7=Chorale (J>S.Bach)
TTITLE8=Bruno's Canzona
TTITLE9=Nocturne
TTITLE10=Dora's Lullaby
TTITLE11=Moonlight of Sleeping Dogs
EXTD=YEAR: 2004
EXTT0=
EXTT1=
EXTT2=
EXTT3=
EXTT4=
EXTT5=
EXTT6=
EXTT7=
EXTT8=
EXTT9=
EXTT10=
EXTT11=
PLAYORDER=
